<svg height="512pt" viewBox="-11 0 512 512" width="512pt" xmlns="http://www.w3.org/2000/svg"><path d="m490 245c0 135.308594-109.691406 245-245 245s-245-109.691406-245-245 109.691406-245 245-245 245 109.691406 245 245zm0 0" fill="#2e4c89"/><path d="m214.097656 331.980469h4.179688c1.433594-6.984375 7.496094-11.984375 14.695312-11.984375h24.050782c7.199218 0 13.261718 5 14.695312 11.984375h4.183594l13.425781-7.457031-14.570313-25.238282h-59.515624l-14.570313 25.238282zm0 0" fill="#37c47a"/><path d="m214.097656 331.980469h4.179688c1.03125-5.019531 4.453125-9.007813 8.980468-10.855469l12.605469-21.839844h-24.621093l-14.570313 25.238282zm0 0" fill="#2bb381"/><path d="m281.859375 294.527344-16.734375-28.988282h-40.25l-16.734375 28.988282c-.65625 1.132812-.65625 2.527344 0 3.660156.652344 1.132812 1.863281 1.832031 3.171875 1.832031h67.378906c1.308594 0 2.515625-.699219 3.167969-1.832031.65625-1.132812.65625-2.527344 0-3.660156zm0 0" fill="#02af8e"/><path d="m226.789062 298.1875c-.652343-1.132812-.652343-2.527344 0-3.660156l16.734376-28.988282h-18.648438l-16.734375 28.988282c-.65625 1.132812-.65625 2.527344 0 3.660156.652344 1.132812 1.863281 1.832031 3.171875 1.832031h18.648438c-1.308594 0-2.519532-.699219-3.171876-1.832031zm0 0" fill="#159e97"/><path d="m222.292969 266.273438c-1.308594 0-2.515625-.699219-3.171875-1.832032-.652344-1.132812-.652344-2.53125 0-3.664062l22.707031-39.328125c.65625-1.132813 1.863281-1.828125 3.171875-1.828125s2.515625.695312 3.171875 1.828125l22.707031 39.328125c.652344 1.132812.652344 2.53125 0 3.664062-.65625 1.132813-1.867187 1.832032-3.171875 1.832032zm0 0" fill="#fff"/><path d="m231.488281 264.441406c-.652343-1.132812-.652343-2.53125 0-3.664062l19.695313-34.105469-3.011719-5.222656c-.65625-1.132813-1.863281-1.828125-3.171875-1.828125s-2.515625.695312-3.171875 1.828125l-22.707031 39.328125c-.652344 1.132812-.652344 2.53125 0 3.664062.65625 1.132813 1.863281 1.832032 3.171875 1.832032h12.367187c-1.308594 0-2.515625-.699219-3.171875-1.832032zm0 0" fill="#eef6ff"/><path d="m265.867188 392.738281-1.492188.835938c-2.242188 1.261719-4.785156 1.929687-7.351562 1.929687h-24.050782c-.976562 0-1.96875-.101562-2.945312-.292968l-1.195313-.238282v51.863282c4.828125 1.355468 9.90625 2.109374 15.164063 2.136718 7.742187.035156 15.125-1.480468 21.871094-4.242187zm0 0" fill="#2bb381"/><path d="m127.058594 372.425781c-3.371094.632813-6.796875.960938-10.238282.960938-1.089843 0-2.175781-.035157-3.257812-.101563.34375 12.863282 5.046875 25.398438 13.496094 35.367188zm0 0" fill="#37c47a"/><path d="m183.742188 400.367188-38.800782 21.539062c-.261718.148438-.527344.28125-.789062.414062 12.597656 6.585938 26.640625 7.988282 39.589844 4.890626zm0 0" fill="#37c47a"/><path d="m147.117188 269.183594c-6.808594 13.015625-18.582032 23.054687-32.761719 27.570312-.800781 8.707032-8.136719 15.554688-17.054688 15.554688-8.953125 0-16.308593-6.90625-17.054687-15.671875-4.816406-1.566407-9.351563-3.761719-13.496094-6.5-9.105469 16.738281-9.617188 37.652343.492188 55.433593 12.304687 21.636719 36.640624 32.125 59.816406 27.871094v-69.324218c0-7.933594 3.820312-12.859376 9.96875-12.859376 2.464844 0 5.125.78125 7.914062 2.332032l28.210938 15.660156c-.988282-6.847656-3.234375-13.628906-6.859375-20.003906-4.8125-8.464844-11.472657-15.222656-19.175781-20.0625zm0 0" fill="#2bb381"/><path d="m91.492188 345.570312c-6.90625-12.144531-8.847657-25.753906-6.488282-38.496093-2.667968-2.757813-4.417968-6.40625-4.761718-10.457031-4.8125-1.5625-9.347657-3.746094-13.492188-6.480469-9.105469 16.738281-9.617188 37.652343.492188 55.433593 12.304687 21.636719 36.640624 32.136719 59.816406 27.878907v-.832031c-14.519532-3.675782-27.578125-13.003907-35.566406-27.046876zm0 0" fill="#159e97"/><path d="m117.800781 225.664062c-9.925781 0-19.722656-2.675781-28.328125-7.734374-4.042968-2.378907-7.667968-5.199219-10.867187-8.351563-3.117188 4.289063-8.160157 7.097656-13.859375 7.097656-5.464844 0-10.332032-2.582031-13.46875-6.582031-6.6875 9.253906-10.667969 20.597656-10.761719 32.886719-.1875 25.652343 16.609375 47.460937 39.871094 54.773437-.125-.84375-.214844-1.699218-.214844-2.578125 0-9.445312 7.683594-17.132812 17.132813-17.132812 9.445312 0 17.132812 7.683593 17.132812 17.132812 0 .921875-.09375 1.816407-.234375 2.699219 23.152344-7.097656 40.070313-28.558594 40.257813-54.054688.070312-9.734374-2.308594-18.917968-6.554688-26.964843-8.871094 5.644531-19.296875 8.808593-30.105469 8.808593zm0 0" fill="#37c47a"/><path d="m80.171875 295.175781c0-3.707031 1.195313-7.136719 3.207031-9.941406-11.367187-10.503906-18.445312-25.5625-18.324218-42.253906.078124-10.355469 2.929687-20.035157 7.824218-28.363281-2.421875 1.3125-5.191406 2.058593-8.132812 2.058593-5.464844 0-10.332032-2.582031-13.46875-6.582031-6.6875 9.253906-10.671875 20.597656-10.761719 32.886719-.1875 25.652343 16.609375 47.460937 39.871094 54.773437-.128907-.84375-.214844-1.699218-.214844-2.578125zm0 0" fill="#02af8e"/><path d="m166.925781 171.78125c-2.644531 6.058594-8.683593 10.304688-15.703125 10.304688-9.445312 0-17.128906-7.6875-17.128906-17.132813 0-2.417969.507812-4.714844 1.414062-6.800781-4.667968-4.085938-8.695312-8.972656-11.835937-14.53125-5.511719-9.75-7.757813-20.464844-7.117187-30.890625-19.046876.453125-37.433594 10.4375-47.804688 28.066406-7.714844 13.117187-9.566406 28.058594-6.367188 41.796875.777344-.105469 1.5625-.183594 2.363282-.183594 9.449218 0 17.136718 7.6875 17.136718 17.132813 0 4.113281-1.460937 7.894531-3.886718 10.851562 3.234375 3.164063 6.894531 5.996094 10.972656 8.394531 27.117188 15.953126 62.039062 6.902344 77.992188-20.214843 4.929687-8.378907 7.464843-17.5 7.824218-26.574219-.777344.03125-1.554687.054688-2.335937.054688-1.855469.003906-3.699219-.089844-5.523438-.273438zm0 0" fill="#2bb381"/><path d="m92.914062 140.796875c5.789063-9.847656 14.085938-17.304687 23.597657-22.050781-.09375-2.007813-.078125-4.011719.042969-6.007813-19.046876.449219-37.433594 10.429688-47.804688 28.058594-7.71875 13.117187-9.566406 28.058594-6.367188 41.796875.773438-.105469 1.558594-.183594 2.363282-.183594 9.449218 0 17.132812 7.6875 17.132812 17.132813 0 4.113281-1.457031 7.894531-3.886718 10.851562 3.238281 3.164063 6.898437 5.996094 10.972656 8.394531 12.847656 7.558594 27.445312 9.496094 40.949218 6.566407-5.761718-1.25-11.425781-3.414063-16.785156-6.566407-27.117187-15.953124-36.167968-50.875-20.214844-77.992187zm0 0" fill="#159e97"/><path d="m189.027344 96.972656c0-4.738281.601562-9.332031 1.714844-13.730468-7.828126-1.578126-13.742188-8.503907-13.742188-16.792969 0-2.496094.550781-4.863281 1.515625-7.007813-11.445313-1.25-23.371094.941406-34.160156 7.039063-27.386719 15.488281-37.039063 50.246093-21.554688 77.636719 3.3125 5.851562 7.507813 10.890624 12.316407 15.050781 2.382812-6.601563 8.691406-11.347657 16.105468-11.347657 9.449219 0 17.132813 7.6875 17.132813 17.132813 0 2.800781-.6875 5.4375-1.882813 7.773437 11.386719 1.203126 23.238282-.992187 33.964844-7.058593 8.261719-4.671875 14.898438-11.105469 19.730469-18.554688-18.4375-9.167969-31.140625-28.195312-31.140625-50.140625zm0 0" fill="#37c47a"/><path d="m149.78125 147.894531c-.820312-1.222656-1.617188-2.472656-2.355469-3.777343-15.484375-27.390626-5.835937-62.148438 21.550781-77.636719 2.761719-1.5625 5.601563-2.855469 8.484376-3.910157.253906-1.085937.605468-2.128906 1.050781-3.121093-11.441407-1.25-23.371094.933593-34.15625 7.03125-27.386719 15.488281-37.039063 50.246093-21.554688 77.636719 3.3125 5.851562 7.507813 10.886718 12.320313 15.046874 2.222656-6.167968 7.878906-10.699218 14.660156-11.269531zm0 0" fill="#02af8e"/><path d="m166.46875 172.730469c6.039062.636719 12.207031.320312 18.273438-1.027344-5.746094-1.269531-11.285157-3.425781-16.402344-6.398437-.054688 2.671874-.722656 5.1875-1.871094 7.425781zm0 0" fill="#02af8e"/><path d="m245 40c-14.757812 0-28.207031 5.613281-38.324219 14.820312 2.835938 3.058594 4.589844 7.140626 4.589844 11.628907 0 9.449219-7.6875 17.132812-17.132813 17.132812-1.515624 0-2.972656-.214843-4.371093-.585937-1.128907 4.472656-1.734375 9.152344-1.734375 13.976562 0 31.464844 25.507812 56.972656 56.972656 56.972656 9.730469 0 18.886719-2.445312 26.898438-6.746093-11.03125-17.097657-12.355469-39.636719-1.484376-58.429688 5.476563-9.464843 13.550782-16.957031 23.019532-21.796875-10.050782-16.1875-27.980469-26.972656-48.433594-26.972656zm0 0" fill="#2bb381"/><path d="m257.484375 41.390625c-4.019531-.902344-8.195313-1.390625-12.484375-1.390625-14.757812 0-28.207031 5.613281-38.324219 14.820312 2.835938 3.058594 4.589844 7.140626 4.589844 11.628907 0 9.449219-7.6875 17.132812-17.132813 17.132812-1.515624 0-2.972656-.214843-4.371093-.585937-1.128907 4.472656-1.734375 9.152344-1.734375 13.976562 0 31.464844 25.507812 56.972656 56.972656 56.972656 4.292969 0 8.46875-.492187 12.488281-1.390624-25.457031-5.695313-44.488281-28.410157-44.488281-55.582032s19.03125-49.886718 44.484375-55.582031zm0 0" fill="#159e97"/><path d="m347.390625 67.480469c-27.238281-15.753907-62.089844-6.449219-77.84375 20.789062-15.753906 27.234375-6.445313 62.085938 20.789063 77.84375 8.410156 4.863281 17.546874 7.332031 26.625 7.625-.285157-5.777343.320312-11.625 1.871093-17.375.136719-.507812.296875-1.007812.445313-1.511719-.984375-.179687-1.917969-.570312-2.746094-1.171874-2.109375-1.53125-3.144531-4.078126-2.707031-6.644532l2.226562-12.960937-9.417969-9.179688c-1.863281-1.816406-2.523437-4.488281-1.71875-6.96875.804688-2.476562 2.90625-4.25 5.488282-4.625l13.011718-1.890625 5.820313-11.792968c1.152344-2.335938 3.488281-3.785157 6.09375-3.785157s4.941406 1.449219 6.09375 3.785157l5.820313 11.792968 13.011718 1.890625c1.667969.242188 3.132813 1.078125 4.179688 2.304688 2.769531-.425781 5.570312-.644531 8.382812-.644531 1 0 1.992188.03125 2.984375.085937-.601562-19.035156-10.714843-37.332031-28.410156-47.566406zm0 0" fill="#37c47a"/><path d="m316.996094 167.46875c-.839844-.433594-1.675782-.878906-2.503906-1.355469-27.234376-15.753906-36.542969-50.605469-20.789063-77.84375 8.367187-14.460937 22.117187-23.867187 37.25-27.152343-23.546875-5.121094-48.691406 5.175781-61.40625 27.152343-15.753906 27.234375-6.445313 62.085938 20.789063 77.84375 8.410156 4.863281 17.546874 7.324219 26.625 7.617188-.105469-2.082031-.101563-4.171875.035156-6.261719zm0 0" fill="#02af8e"/><path d="m392.652344 188.878906c3.902344.007813 7.703125.429688 11.378906 1.203125-.222656-1.101562-.34375-2.238281-.34375-3.402343 0-9.445313 7.6875-17.132813 17.132812-17.132813 3.308594 0 6.390626.960937 9.011719 2.589844.222657-10.039063-2.203125-20.265625-7.574219-29.605469-12.191406-21.191406-35.941406-31.582031-58.722656-27.800781 1.007813.808593 1.789063 1.902343 2.207032 3.195312.804687 2.480469.148437 5.148438-1.71875 6.96875l-9.417969 9.175781 2.222656 12.960938c.441406 2.570312-.59375 5.117188-2.703125 6.648438-1.171875.847656-2.550781 1.296874-3.996094 1.296874-1.097656 0-2.1875-.269531-3.160156-.78125l-11.640625-6.117187-11.640625 6.117187c-.96875.511719-2.0625.78125-3.160156.78125-.765625 0-1.511719-.132812-2.21875-.378906-4.328125 14.472656-2.949219 30.621094 5.175781 44.746094 4.855469 8.433594 11.539063 15.152344 19.261719 19.957031 9.3125-18.042969 28.128906-30.421875 49.765625-30.421875zm0 0" fill="#2bb381"/><path d="m343.222656 152.226562-7.894531-4.148437-11.636719 6.117187c-.972656.511719-2.066406.78125-3.164062.78125-.765625 0-1.507813-.132812-2.214844-.375-4.332031 14.46875-2.949219 30.617188 5.175781 44.742188 4.851563 8.4375 11.539063 15.152344 19.261719 19.953125 2.507812-4.855469 5.699219-9.296875 9.453125-13.199219-1.652344-2.117187-3.191406-4.359375-4.570313-6.753906-8.570312-14.902344-9.640624-32.058594-4.410156-47.117188zm0 0" fill="#159e97"/><path d="m363.542969 114.734375c1.007812.8125 1.78125 1.902344 2.199219 3.191406.679687 2.085938.308593 4.300781-.933594 6.039063 1.230468-.84375 2.492187-1.65625 3.804687-2.414063 5.222657-3 10.722657-5.078125 16.308594-6.292969-6.964844-1.507812-14.21875-1.707031-21.378906-.523437zm0 0" fill="#159e97"/><path d="m429.429688 201.46875c-2.535157 1.480469-5.46875 2.34375-8.609376 2.34375-8.652343 0-15.808593-6.457031-16.953124-14.796875-3.625-.734375-7.371094-1.128906-11.210938-1.140625-31.464844-.074219-57.035156 25.367188-57.113281 56.835938-.023438 9.730468 2.402343 18.898437 6.683593 26.921874 8.917969-5.734374 19.425782-8.949218 30.339844-8.949218 5.417969 0 10.800782.800781 15.972656 2.351562 2.992188-2.554687 6.863282-4.105468 11.097657-4.105468 9.449219 0 17.132812 7.683593 17.132812 17.132812 0 1.84375-.300781 3.621094-.84375 5.289062 2.523438 3.113282 4.6875 6.46875 6.472657 10 16.210937-10.007812 27.039062-27.910156 27.089843-48.363281.042969-17.425781-7.753906-33.039062-20.058593-43.519531zm0 0" fill="#37c47a"/><path d="m403.929688 189.417969c-.019532-.125-.039063-.253907-.058594-.378907-3.628906-.734374-7.371094-1.152343-11.214844-1.160156-31.464844-.078125-57.035156 25.367188-57.113281 56.832032-.023438 9.734374 2.402343 18.898437 6.683593 26.925781 6.328126-4.070313 13.453126-6.871094 20.960938-8.152344-2.039062-5.882813-3.148438-12.195313-3.128906-18.773437.0625-26.90625 18.78125-49.382813 43.871094-55.292969zm0 0" fill="#02af8e"/><path d="m151.222656 182.085938c-9.445312 0-17.128906-7.6875-17.128906-17.132813s7.683594-17.132813 17.128906-17.132813c9.449219 0 17.132813 7.6875 17.132813 17.132813s-7.683594 17.132813-17.132813 17.132813zm0 0" fill="#ffd782"/><path d="m420.820312 203.8125c-9.445312 0-17.128906-7.6875-17.128906-17.132812 0-9.445313 7.683594-17.132813 17.128906-17.132813 9.449219 0 17.132813 7.6875 17.132813 17.132813 0 9.445312-7.683594 17.132812-17.132813 17.132812zm0 0" fill="#ffd782"/><path d="m194.132812 83.582031c-9.449218 0-17.132812-7.683593-17.132812-17.132812 0-9.445313 7.683594-17.128907 17.132812-17.128907 9.445313 0 17.132813 7.683594 17.132813 17.128907 0 9.449219-7.6875 17.132812-17.132813 17.132812zm0 0" fill="#fff"/><path d="m97.304688 312.308594c-9.449219 0-17.132813-7.6875-17.132813-17.132813 0-9.445312 7.683594-17.132812 17.132813-17.132812 9.445312 0 17.132812 7.683593 17.132812 17.132812 0 9.445313-7.6875 17.132813-17.132812 17.132813zm0 0" fill="#fff"/><path d="m64.746094 216.675781c-9.445313 0-17.128906-7.6875-17.128906-17.132812 0-9.445313 7.683593-17.132813 17.128906-17.132813 9.449218 0 17.136718 7.6875 17.136718 17.132813 0 9.445312-7.6875 17.132812-17.136718 17.132812zm0 0" fill="#ea2a3d"/><path d="m350.128906 154.980469c-1.09375 0-2.1875-.269531-3.160156-.78125l-11.640625-6.121094-11.636719 6.117187c-.972656.511719-2.066406.78125-3.164062.78125-1.445313 0-2.828125-.449218-3.996094-1.296874-2.109375-1.53125-3.144531-4.082032-2.703125-6.648438l2.222656-12.960938-9.414062-9.175781c-1.867188-1.816406-2.527344-4.488281-1.722657-6.96875.804688-2.476562 2.90625-4.25 5.488282-4.625l13.011718-1.890625 5.820313-11.792968c1.152344-2.335938 3.488281-3.789063 6.09375-3.789063 2.609375 0 4.941406 1.453125 6.09375 3.789063l5.820313 11.792968 13.011718 1.890625c2.582032.375 4.683594 2.148438 5.488282 4.625.804687 2.480469.144531 5.148438-1.71875 6.96875l-9.417969 9.175781 2.222656 12.960938c.441406 2.570312-.59375 5.117188-2.703125 6.648438-1.167969.847656-2.550781 1.300781-3.996094 1.300781zm0 0" fill="#ffd00d"/><path d="m413.828125 377.777344c-.804687 0-1.605469-.195313-2.3125-.570313l-9.039063-4.75-9.039062 4.75c-.710938.375-1.511719.570313-2.316406.570313-1.058594 0-2.070313-.328125-2.929688-.949219-1.542968-1.125-2.300781-2.992187-1.980468-4.871094l1.726562-10.0625-7.308594-7.125c-1.367187-1.335937-1.851562-3.292969-1.261718-5.109375.589843-1.8125 2.128906-3.113281 4.019531-3.390625l10.105469-1.46875 4.519531-9.152343c.84375-1.714844 2.554687-2.777344 4.464843-2.777344 1.910157 0 3.621094 1.0625 4.464844 2.777344l4.519532 9.152343 10.101562 1.46875c1.890625.273438 3.429688 1.574219 4.023438 3.390625.589843 1.816406.105468 3.773438-1.261719 5.105469l-7.3125 7.125 1.726562 10.0625c.324219 1.882813-.4375 3.75-1.980469 4.871094-.859374.625-1.871093.953125-2.929687.953125zm0 0" fill="#ffd00d"/><path d="m416.257812 282.148438c-1.839843 7.472656-8.582031 13.042968-16.621093 13.042968-9.445313 0-17.128907-7.683594-17.128907-17.132812 0-5.648438 2.757813-10.652344 6.984376-13.773438-24.820313-7.773437-52.59375 2.296875-66.226563 25.730469-3.621094 6.222656-5.914063 12.847656-6.996094 19.554687l28.789063-15.984374c2.785156-1.546876 5.449218-2.328126 7.914062-2.328126 6.148438 0 9.96875 4.925782 9.96875 12.859376v34.699218c1.269532 1.726563 2.449219 3.539063 3.539063 5.4375 5.65625 9.890625 8.011719 20.761719 7.425781 31.347656 4.183594-.105468 8.332031-.65625 12.367188-1.660156-.148438-.640625-.179688-1.3125-.0625-1.984375l1.726562-10.0625-7.308594-7.125c-1.367187-1.335937-1.851562-3.292969-1.261718-5.109375.589843-1.8125 2.128906-3.113281 4.019531-3.390625l10.105469-1.46875 4.519531-9.152343c.84375-1.714844 2.554687-2.777344 4.464843-2.777344 1.910157 0 3.621094 1.0625 4.464844 2.777344l4.519532 9.152343 10.101562 1.46875c.234375.035157.460938.085938.683594.148438 11.792968-21.121094 8.722656-46.640625-5.988282-64.269531zm0 0" fill="#2bb381"/><path d="m345.058594 293.585938c.367187-.203126.730468-.390626 1.097656-.570313.507812-1.007813 1.039062-2.011719 1.617188-3 8.34375-14.347656 21.996093-23.6875 37.023437-26.992187-23.550781-5.203126-48.753906 5.027343-61.53125 26.992187-3.621094 6.222656-5.914063 12.847656-6.996094 19.554687zm0 0" fill="#159e97"/><path d="m362.941406 407.851562c13.972656-17.703124 16.632813-42.8125 4.75-63.59375-1.429687-2.5-3.019531-4.84375-4.75-7.035156zm0 0" fill="#37c47a"/><path d="m345.058594 421.910156-34.105469-18.933594v26.0625c11.664063 1.515626 23.886719-.566406 34.929687-6.699218-.273437-.136719-.546874-.277344-.824218-.429688zm0 0" fill="#37c47a"/><path d="m169.355469 164.953125c0 10.015625-8.117188 18.132813-18.132813 18.132813-10.011718 0-18.128906-8.117188-18.128906-18.132813 0-10.011719 8.117188-18.132813 18.128906-18.132813 10.015625 0 18.132813 8.121094 18.132813 18.132813zm0 0" fill="#ffd782"/><path d="m145.734375 164.953125c0-7.785156 4.917969-14.40625 11.8125-16.976563-1.972656-.734374-4.097656-1.15625-6.324219-1.15625-10.011718 0-18.132812 8.121094-18.132812 18.132813 0 10.015625 8.121094 18.132813 18.132812 18.132813 2.226563 0 4.351563-.421876 6.324219-1.15625-6.894531-2.570313-11.8125-9.191407-11.8125-16.976563zm0 0" fill="#ffc987"/><path d="m438.957031 186.679688c0 10.015624-8.121093 18.132812-18.132812 18.132812-10.015625 0-18.132813-8.117188-18.132813-18.132812 0-10.015626 8.117188-18.132813 18.132813-18.132813 10.011719 0 18.132812 8.117187 18.132812 18.132813zm0 0" fill="#ffd782"/><path d="m414.734375 186.679688c0-7.898438 5.0625-14.601563 12.109375-17.085938-1.886719-.664062-3.90625-1.046875-6.023438-1.046875-10.011718 0-18.128906 8.117187-18.128906 18.132813 0 10.011718 8.117188 18.132812 18.128906 18.132812 2.117188 0 4.136719-.382812 6.023438-1.046875-7.046875-2.484375-12.109375-9.1875-12.109375-17.085937zm0 0" fill="#ffc987"/><path d="m212.265625 66.449219c0 10.015625-8.121094 18.132812-18.132813 18.132812-10.015624 0-18.132812-8.117187-18.132812-18.132812 0-10.011719 8.117188-18.128907 18.132812-18.128907 10.011719 0 18.132813 8.117188 18.132813 18.128907zm0 0" fill="#fff"/><path d="m188.734375 66.449219c0-7.769531 4.898437-14.378907 11.765625-16.957031-1.984375-.746094-4.125-1.171876-6.367188-1.171876-10.015624 0-18.132812 8.117188-18.132812 18.132813 0 10.011719 8.117188 18.132813 18.132812 18.132813 2.242188 0 4.382813-.429688 6.367188-1.175782-6.867188-2.582031-11.765625-9.191406-11.765625-16.960937zm0 0" fill="#eef6ff"/><path d="m417.769531 278.132812c0 10.011719-8.117187 18.132813-18.132812 18.132813-10.011719 0-18.128907-8.121094-18.128907-18.132813 0-10.015624 8.117188-18.132812 18.128907-18.132812 10.015625 0 18.132812 8.117188 18.132812 18.132812zm0 0" fill="#ea2a3d"/><path d="m393.734375 278.132812c0-7.863281 5.019531-14.539062 12.019531-17.054687-1.914062-.683594-3.96875-1.078125-6.117187-1.078125-10.011719 0-18.128907 8.117188-18.128907 18.132812 0 10.011719 8.117188 18.132813 18.128907 18.132813 2.148437 0 4.203125-.394531 6.117187-1.082031-7-2.511719-12.019531-9.1875-12.019531-17.050782zm0 0" fill="#b7092b"/><path d="m115.4375 295.175781c0 10.015625-8.117188 18.132813-18.132812 18.132813-10.015626 0-18.132813-8.117188-18.132813-18.132813s8.117187-18.132812 18.132813-18.132812c10.015624 0 18.132812 8.117187 18.132812 18.132812zm0 0" fill="#fff"/><path d="m91.734375 295.175781c0-7.804687 4.9375-14.433593 11.851563-16.992187-1.960938-.726563-4.070313-1.140625-6.28125-1.140625-10.015626 0-18.132813 8.117187-18.132813 18.132812 0 10.011719 8.117187 18.132813 18.132813 18.132813 2.210937 0 4.320312-.417969 6.28125-1.144532-6.914063-2.554687-11.851563-9.1875-11.851563-16.988281zm0 0" fill="#eef6ff"/><path d="m82.882812 199.542969c0 10.015625-8.121093 18.132812-18.132812 18.132812-10.015625 0-18.132812-8.117187-18.132812-18.132812 0-10.011719 8.117187-18.132813 18.132812-18.132813 10.011719 0 18.132812 8.121094 18.132812 18.132813zm0 0" fill="#ea2a3d"/><path d="m58.734375 199.542969c0-7.882813 5.042969-14.574219 12.074219-17.070313-1.898438-.675781-3.933594-1.0625-6.0625-1.0625-10.011719 0-18.128906 8.121094-18.128906 18.132813 0 10.015625 8.117187 18.132812 18.128906 18.132812 2.128906 0 4.164062-.386719 6.0625-1.058593-7.03125-2.496094-12.074219-9.1875-12.074219-17.074219zm0 0" fill="#b7092b"/><path d="m350.128906 155.980469c-1.257812 0-2.511718-.3125-3.625-.898438l-11.171875-5.875-11.175781 5.875c-1.117188.585938-2.371094.898438-3.628906.898438-1.65625 0-3.242188-.515625-4.582032-1.492188-2.417968-1.757812-3.609374-4.679687-3.101562-7.625l2.132812-12.441406-9.039062-8.808594c-2.140625-2.085937-2.894531-5.148437-1.972656-7.996093.925781-2.84375 3.335937-4.875 6.296875-5.304688l12.492187-1.816406 5.585938-11.320313c1.320312-2.679687 4-4.34375 6.992187-4.34375 2.988281 0 5.667969 1.664063 6.988281 4.34375l5.589844 11.320313 12.488282 1.816406c2.960937.429688 5.375 2.460938 6.296874 5.304688.921876 2.84375.167969 5.90625-1.972656 7.996093l-9.039062 8.808594 2.132812 12.441406c.503906 2.945313-.683594 5.867188-3.101562 7.625-1.34375.976563-2.925782 1.492188-4.585938 1.492188zm0 0" fill="#ffd00d"/><path d="m327.367188 149.511719c-2.417969-1.757813-3.609376-4.679688-3.101563-7.625l2.132813-12.445313-9.039063-8.808594c-2.140625-2.085937-2.894531-5.148437-1.972656-7.992187.128906-.402344.296875-.78125.480469-1.144531l-5.605469.816406c-2.960938.429688-5.371094 2.460938-6.296875 5.304688-.921875 2.84375-.167969 5.90625 1.972656 7.992187l9.039062 8.8125-2.132812 12.441406c-.507812 2.945313.683594 5.867188 3.101562 7.625 1.339844.976563 2.925782 1.488281 4.582032 1.488281 1.257812 0 2.511718-.308593 3.628906-.894531l7.769531-4.085937c-1.648437-.003906-3.226562-.515625-4.558593-1.484375zm0 0" fill="#ffaf10"/><path d="m413.828125 378.777344c-.964844 0-1.925781-.234375-2.78125-.683594l-8.570313-4.507812-8.574218 4.507812c-.851563.449219-1.816406.683594-2.78125.683594-1.273438 0-2.488282-.394532-3.515625-1.140625-1.855469-1.347657-2.769531-3.589844-2.378907-5.851563l1.636719-9.542968-6.933593-6.757813c-1.644532-1.601563-2.222657-3.949219-1.515626-6.132813.710938-2.179687 2.558594-3.738281 4.828126-4.070312l9.582031-1.390625 4.289062-8.683594c1.011719-2.054687 3.066407-3.335937 5.363281-3.335937 2.292969 0 4.347657 1.28125 5.363282 3.335937l4.285156 8.683594 9.582031 1.390625c2.269531.332031 4.117188 1.890625 4.828125 4.070312.707032 2.183594.128906 4.53125-1.511718 6.132813l-6.933594 6.757813 1.636718 9.542968c.386719 2.261719-.527343 4.503906-2.382812 5.851563-1.027344.746093-2.242188 1.140625-3.515625 1.140625zm0 0" fill="#ffd00d"/><path d="m395.773438 374.859375c-1.855469-1.347656-2.765626-3.589844-2.378907-5.851563l1.636719-9.542968-6.933594-6.757813c-1.644531-1.601562-2.222656-3.949219-1.511718-6.132812.230468-.722657.601562-1.367188 1.0625-1.933594l-4.40625.640625c-2.269532.332031-4.117188 1.890625-4.828126 4.070312-.707031 2.183594-.128906 4.53125 1.515626 6.132813l6.933593 6.757813-1.636719 9.542968c-.386718 2.261719.523438 4.5 2.378907 5.851563 1.027343.746093 2.242187 1.140625 3.515625 1.140625.964844 0 1.929687-.238282 2.78125-.6875l4.222656-2.21875c-.84375-.164063-1.644531-.5-2.351562-1.011719zm0 0" fill="#ffaf10"/><path d="m218.132812 382.8125-.222656-1.414062-35.167968 19.523437v107.339844c0 1.503906.90625 2.863281 2.292968 3.445312.46875.199219.960938.292969 1.449219.292969.960937 0 1.90625-.371094 2.617187-1.070312l17.1875-16.851563 17.183594 16.851563c.714844.699218 1.660156 1.070312 2.621094 1.070312.488281 0 .980469-.09375 1.445312-.292969 1.390626-.582031 2.292969-1.941406 2.292969-3.445312v-113.097657c-6-1.261718-10.710937-6.0625-11.699219-12.351562zm0 0" fill="#b7092b"/><path d="m182.742188 400.921875v107.339844c0 1.503906.90625 2.863281 2.292968 3.445312.46875.199219.960938.292969 1.449219.292969.960937 0 1.90625-.371094 2.617187-1.070312l12.898438-12.644532v-108.054687zm0 0" fill="#a00026"/><path d="m272.082031 381.394531-.222656 1.414063c-.707031 4.523437-3.34375 8.277344-6.996094 10.5v114.953125c0 1.503906.90625 2.863281 2.292969 3.445312.46875.199219.960938.292969 1.449219.292969.960937 0 1.90625-.371094 2.617187-1.070312l17.1875-16.851563 17.1875 16.851563c.710938.699218 1.65625 1.070312 2.617188 1.070312.488281 0 .980468-.09375 1.449218-.292969 1.386719-.582031 2.289063-1.941406 2.289063-3.445312v-104.730469zm0 0" fill="#b7092b"/><path d="m272.082031 381.394531-.222656 1.414063c-.707031 4.523437-3.34375 8.277344-6.996094 10.5v114.953125c0 1.503906.90625 2.863281 2.292969 3.445312.46875.199219.960938.292969 1.449219.292969.960937 0 1.90625-.371094 2.617187-1.070312l12.898438-12.644532v-110.207031zm0 0" fill="#a00026"/><path d="m217.929688 380.46875v-45.4375c0-.675781.0625-1.332031.148437-1.984375l-72.652344-40.335937c-10.652343-5.910157-19.367187-.78125-19.367187 11.40625v107.265624c0 12.183594 8.714844 17.3125 19.367187 11.398438l72.652344-40.332031c-.085937-.648438-.148437-1.308594-.148437-1.980469zm0 0" fill="#ea2a3d"/><path d="m344.574219 292.710938-72.660157 40.339843c.089844.648438.148438 1.308594.148438 1.980469v45.4375c0 .671875-.058594 1.328125-.144531 1.976562l72.65625 40.335938c10.652343 5.914062 19.367187.785156 19.367187-11.398438v-107.265624c0-12.1875-8.714844-17.316407-19.367187-11.40625zm0 0" fill="#ea2a3d"/><path d="m151 411.382812v-107.265624c0-2.933594.511719-5.457032 1.425781-7.519532l-7-3.882812c-10.652343-5.914063-19.367187-.785156-19.367187 11.402344v107.265624c0 12.183594 8.714844 17.316407 19.367187 11.398438l7-3.882812c-.914062-2.0625-1.425781-4.582032-1.425781-7.515626zm0 0" fill="#b7092b"/><path d="m217.929688 345.953125h-30.789063c-3.230469 0-5.875 2.644531-5.875 5.875v5.871094c0 3.230469 2.644531 5.875 5.875 5.875h30.789063zm0 0" fill="#b7092b"/><path d="m299.902344 345.953125h-27.839844v17.621094h27.839844c3.230468 0 5.875-2.644531 5.875-5.875v-5.875c0-3.226563-2.640625-5.871094-5.875-5.871094zm0 0" fill="#a00026"/><path d="m273.0625 380.46875c0 8.855469-7.179688 16.035156-16.039062 16.035156h-24.050782c-8.859375 0-16.042968-7.179687-16.042968-16.035156v-45.4375c0-8.855469 7.183593-16.035156 16.042968-16.035156h24.050782c8.859374 0 16.039062 7.179687 16.039062 16.035156zm0 0" fill="#b7092b"/><path d="m241.867188 380.46875v-45.4375c0-8.707031 6.945312-15.773438 15.597656-16.011719-.148438-.003906-.292969-.023437-.441406-.023437h-24.050782c-8.859375 0-16.042968 7.179687-16.042968 16.035156v45.4375c0 8.851562 7.183593 16.035156 16.042968 16.035156h24.050782c.148437 0 .292968-.019531.441406-.023437-8.652344-.238281-15.597656-7.304688-15.597656-16.011719zm0 0" fill="#a00026"/></svg>