<svg height="496pt" viewBox="0 0 496 496" width="496pt" xmlns="http://www.w3.org/2000/svg"><path d="m152 440h192v48h-192zm0 0" fill="#aab2bd"/><path d="m408 120h48c17.671875 0 32 14.328125 32 32v256c0 17.671875-14.328125 32-32 32h-416c-17.671875 0-32-14.328125-32-32v-256c0-17.671875 14.328125-32 32-32zm0 0" fill="#69d6f4"/><path d="m488 376v-224c0-17.671875-14.328125-32-32-32h-128l-168 256zm0 0" fill="#4fc1e9"/><path d="m8 408c0 17.671875 14.328125 32 32 32h416c17.671875 0 32-14.328125 32-32v-32h-480zm0 0" fill="#838f9b"/><path d="m408 120h-336v240h352v-240zm0 0" fill="#4fc1e9"/><path d="m424 360v-240h-96l-157.503906 240zm0 0" fill="#3bafda"/><path d="m88 8h320v336h-320zm0 0" fill="#e6e9ed"/><path d="m120 248h256v64h-256zm0 0" fill="#a0d468"/><path d="m120 40h128v96h-128zm0 0" fill="#ffc729"/><path d="m152 440h192v16h-192zm0 0" fill="#969faa"/><path d="m456 112h-40v-112h-336v112h-40c-22.054688 0-40 17.945312-40 40v256c0 22.054688 17.945312 40 40 40h104v32h-32v16h272v-16h-32v-32h104c22.054688 0 40-17.945312 40-40v-256c0-22.054688-17.945312-40-40-40zm-360-96h304v320h-304zm-56 112h40v224h336v-224h40c13.230469 0 24 10.769531 24 24v216h-464v-216c0-13.230469 10.769531-24 24-24zm296 352h-176v-32h176zm120-48h-416c-13.230469 0-24-10.769531-24-24v-24h464v24c0 13.230469-10.769531 24-24 24zm0 0"/><path d="m192 400h16v16h-16zm0 0"/><path d="m224 400h48v16h-48zm0 0"/><path d="m288 400h16v16h-16zm0 0"/><path d="m112 320h272v-80h-272zm16-64h240v48h-240zm0 0"/><path d="m144 272h16v16h-16zm0 0"/><path d="m176 272h16v16h-16zm0 0"/><path d="m208 272h16v16h-16zm0 0"/><path d="m240 272h16v16h-16zm0 0"/><path d="m272 272h16v16h-16zm0 0"/><path d="m304 272h16v16h-16zm0 0"/><path d="m336 272h16v16h-16zm0 0"/><path d="m256 32h-144v112h144zm-16 96h-112v-80h112zm0 0"/><path d="m272 32h112v16h-112zm0 0"/><path d="m272 64h112v16h-112zm0 0"/><path d="m272 96h112v16h-112zm0 0"/><path d="m272 128h112v16h-112zm0 0"/><path d="m112 160h16v16h-16zm0 0"/><path d="m144 160h240v16h-240zm0 0"/><path d="m112 192h272v16h-272zm0 0"/></svg>